<?xml version="1.0" encoding="UTF-8" standalone="no"?>
<!DOCTYPE svg PUBLIC "-//W3C//DTD SVG 1.1//EN"
 "http://www.w3.org/Graphics/SVG/1.1/DTD/svg11.dtd">
<!-- Generated by graphviz version 2.44.1 (20200629.0846)
 -->
<!-- Title: main Pages: 1 -->
<svg width="340pt" height="170pt"
 viewBox="0.00 0.00 340.00 170.00" xmlns="http://www.w3.org/2000/svg" xmlns:xlink="http://www.w3.org/1999/xlink">
<g id="graph0" class="graph" transform="scale(1 1) rotate(0) translate(4 166)">
<title>main</title>
<polygon fill="white" stroke="transparent" points="-4,4 -4,-166 336,-166 336,4 -4,4"/>
<!-- Node1 -->
<g id="node1" class="node">
<title>Node1</title>
<g id="a_node1"><a xlink:title=" ">
<polygon fill="#bfbfbf" stroke="black" points="0,-71.5 0,-90.5 38,-90.5 38,-71.5 0,-71.5"/>
<text text-anchor="middle" x="19" y="-78.5" font-family="Helvetica,sans-Serif" font-size="10.00">main</text>
</a>
</g>
</g>
<!-- Node2 -->
<g id="node2" class="node">
<title>Node2</title>
<g id="a_node2"><a xlink:href="../../d6/d04/classdata__structures_1_1queue__using__array_1_1_queue___array.html#a2aaf88c9954ef3ab686f8e4bfbd87622" target="_top" xlink:title=" ">
<polygon fill="white" stroke="black" points="74,-120.5 74,-161.5 209,-161.5 209,-120.5 74,-120.5"/>
<text text-anchor="start" x="82" y="-149.5" font-family="Helvetica,sans-Serif" font-size="10.00">data_structures::queue</text>
<text text-anchor="start" x="82" y="-138.5" font-family="Helvetica,sans-Serif" font-size="10.00">_using_array::Queue_Array</text>
<text text-anchor="middle" x="141.5" y="-127.5" font-family="Helvetica,sans-Serif" font-size="10.00">::dequeue</text>
</a>
</g>
</g>
<!-- Node1&#45;&gt;Node2 -->
<g id="edge1" class="edge">
<title>Node1&#45;&gt;Node2</title>
<path fill="none" stroke="midnightblue" d="M36.35,-90.55C46.96,-96.63 61.16,-104.55 74,-111 77.31,-112.66 80.73,-114.33 84.19,-115.99"/>
<polygon fill="midnightblue" stroke="midnightblue" points="82.86,-119.24 93.4,-120.34 85.85,-112.91 82.86,-119.24"/>
</g>
<!-- Node4 -->
<g id="node4" class="node">
<title>Node4</title>
<g id="a_node4"><a xlink:href="../../d6/d04/classdata__structures_1_1queue__using__array_1_1_queue___array.html#a688b7ea064739ea9fa66bf64bf4ae631" target="_top" xlink:title=" ">
<polygon fill="white" stroke="black" points="74,-60.5 74,-101.5 209,-101.5 209,-60.5 74,-60.5"/>
<text text-anchor="start" x="82" y="-89.5" font-family="Helvetica,sans-Serif" font-size="10.00">data_structures::queue</text>
<text text-anchor="start" x="82" y="-78.5" font-family="Helvetica,sans-Serif" font-size="10.00">_using_array::Queue_Array</text>
<text text-anchor="middle" x="141.5" y="-67.5" font-family="Helvetica,sans-Serif" font-size="10.00">::display</text>
</a>
</g>
</g>
<!-- Node1&#45;&gt;Node4 -->
<g id="edge3" class="edge">
<title>Node1&#45;&gt;Node4</title>
<path fill="none" stroke="midnightblue" d="M38.04,-81C45.3,-81 54.2,-81 63.7,-81"/>
<polygon fill="midnightblue" stroke="midnightblue" points="63.77,-84.5 73.77,-81 63.77,-77.5 63.77,-84.5"/>
</g>
<!-- Node5 -->
<g id="node5" class="node">
<title>Node5</title>
<g id="a_node5"><a xlink:href="../../d6/d04/classdata__structures_1_1queue__using__array_1_1_queue___array.html#a3139ea4fa676d57c0d6b063696e93ee0" target="_top" xlink:title=" ">
<polygon fill="white" stroke="black" points="74,-0.5 74,-41.5 209,-41.5 209,-0.5 74,-0.5"/>
<text text-anchor="start" x="82" y="-29.5" font-family="Helvetica,sans-Serif" font-size="10.00">data_structures::queue</text>
<text text-anchor="start" x="82" y="-18.5" font-family="Helvetica,sans-Serif" font-size="10.00">_using_array::Queue_Array</text>
<text text-anchor="middle" x="141.5" y="-7.5" font-family="Helvetica,sans-Serif" font-size="10.00">::enqueue</text>
</a>
</g>
</g>
<!-- Node1&#45;&gt;Node5 -->
<g id="edge5" class="edge">
<title>Node1&#45;&gt;Node5</title>
<path fill="none" stroke="midnightblue" d="M36.35,-71.45C46.96,-65.37 61.16,-57.45 74,-51 77.31,-49.34 80.73,-47.67 84.19,-46.01"/>
<polygon fill="midnightblue" stroke="midnightblue" points="85.85,-49.09 93.4,-41.66 82.86,-42.76 85.85,-49.09"/>
</g>
<!-- Node3 -->
<g id="node3" class="node">
<title>Node3</title>
<g id="a_node3"><a target="_blank" xlink:href="http://en.cppreference.com/w/cpp/container/vector/at.html#" target="_top" xlink:title=" ">
<polygon fill="white" stroke="black" points="250,-71.5 250,-90.5 327,-90.5 327,-71.5 250,-71.5"/>
<text text-anchor="middle" x="288.5" y="-78.5" font-family="Helvetica,sans-Serif" font-size="10.00">std::vector::at</text>
</a>
</g>
</g>
<!-- Node2&#45;&gt;Node3 -->
<g id="edge2" class="edge">
<title>Node2&#45;&gt;Node3</title>
<path fill="none" stroke="midnightblue" d="M192.4,-120.35C213.09,-111.79 236.52,-102.1 254.94,-94.47"/>
<polygon fill="midnightblue" stroke="midnightblue" points="256.44,-97.64 264.34,-90.58 253.76,-91.17 256.44,-97.64"/>
</g>
<!-- Node4&#45;&gt;Node3 -->
<g id="edge4" class="edge">
<title>Node4&#45;&gt;Node3</title>
<path fill="none" stroke="midnightblue" d="M209.06,-81C219.34,-81 229.78,-81 239.54,-81"/>
<polygon fill="midnightblue" stroke="midnightblue" points="239.83,-84.5 249.83,-81 239.83,-77.5 239.83,-84.5"/>
</g>
<!-- Node5&#45;&gt;Node3 -->
<g id="edge6" class="edge">
<title>Node5&#45;&gt;Node3</title>
<path fill="none" stroke="midnightblue" d="M192.4,-41.65C213.09,-50.21 236.52,-59.9 254.94,-67.53"/>
<polygon fill="midnightblue" stroke="midnightblue" points="253.76,-70.83 264.34,-71.42 256.44,-64.36 253.76,-70.83"/>
</g>
<!-- Node6 -->
<g id="node6" class="node">
<title>Node6</title>
<g id="a_node6"><a target="_blank" xlink:href="http://en.cppreference.com/w/cpp/container/vector/size.html#" target="_top" xlink:title=" ">
<polygon fill="white" stroke="black" points="245,-11.5 245,-30.5 332,-30.5 332,-11.5 245,-11.5"/>
<text text-anchor="middle" x="288.5" y="-18.5" font-family="Helvetica,sans-Serif" font-size="10.00">std::vector::size</text>
</a>
</g>
</g>
<!-- Node5&#45;&gt;Node6 -->
<g id="edge7" class="edge">
<title>Node5&#45;&gt;Node6</title>
<path fill="none" stroke="midnightblue" d="M209.06,-21C217.74,-21 226.53,-21 234.94,-21"/>
<polygon fill="midnightblue" stroke="midnightblue" points="234.97,-24.5 244.97,-21 234.97,-17.5 234.97,-24.5"/>
</g>
</g>
</svg>
