<?xml version="1.0" encoding="UTF-8" standalone="no"?>
<!DOCTYPE svg PUBLIC "-//W3C//DTD SVG 1.1//EN"
 "http://www.w3.org/Graphics/SVG/1.1/DTD/svg11.dtd">
<!-- Generated by graphviz version 2.44.1 (20200629.0846)
 -->
<!-- Title: main Pages: 1 -->
<svg width="345pt" height="137pt"
 viewBox="0.00 0.00 345.00 137.00" xmlns="http://www.w3.org/2000/svg" xmlns:xlink="http://www.w3.org/1999/xlink">
<g id="graph0" class="graph" transform="scale(1 1) rotate(0) translate(4 133)">
<title>main</title>
<polygon fill="white" stroke="transparent" points="-4,4 -4,-133 341,-133 341,4 -4,4"/>
<!-- Node1 -->
<g id="node1" class="node">
<title>Node1</title>
<g id="a_node1"><a xlink:title=" ">
<polygon fill="#bfbfbf" stroke="black" points="0,-55 0,-74 38,-74 38,-55 0,-55"/>
<text text-anchor="middle" x="19" y="-62" font-family="Helvetica,sans-Serif" font-size="10.00">main</text>
</a>
</g>
</g>
<!-- Node2 -->
<g id="node2" class="node">
<title>Node2</title>
<g id="a_node2"><a xlink:href="../../de/d44/classdata__structures_1_1linked__list_1_1_queue___array.html#aab0371ea097db4a0c44443c3dbecf294" target="_top" xlink:title=" ">
<polygon fill="white" stroke="black" points="74,-98.5 74,-128.5 214,-128.5 214,-98.5 74,-98.5"/>
<text text-anchor="start" x="82" y="-116.5" font-family="Helvetica,sans-Serif" font-size="10.00">data_structures::linked</text>
<text text-anchor="middle" x="144" y="-105.5" font-family="Helvetica,sans-Serif" font-size="10.00">_list::Queue_Array::dequeue</text>
</a>
</g>
</g>
<!-- Node1&#45;&gt;Node2 -->
<g id="edge1" class="edge">
<title>Node1&#45;&gt;Node2</title>
<path fill="none" stroke="midnightblue" d="M38.3,-73.52C48.66,-78.49 61.93,-84.62 74,-89.5 78.47,-91.31 83.13,-93.11 87.83,-94.86"/>
<polygon fill="midnightblue" stroke="midnightblue" points="86.89,-98.24 97.48,-98.38 89.29,-91.67 86.89,-98.24"/>
</g>
<!-- Node4 -->
<g id="node4" class="node">
<title>Node4</title>
<g id="a_node4"><a xlink:href="../../de/d44/classdata__structures_1_1linked__list_1_1_queue___array.html#adfc6f11bf741e732fd721f76f00af28f" target="_top" xlink:title=" ">
<polygon fill="white" stroke="black" points="77,-49.5 77,-79.5 211,-79.5 211,-49.5 77,-49.5"/>
<text text-anchor="start" x="85" y="-67.5" font-family="Helvetica,sans-Serif" font-size="10.00">data_structures::linked</text>
<text text-anchor="middle" x="144" y="-56.5" font-family="Helvetica,sans-Serif" font-size="10.00">_list::Queue_Array::display</text>
</a>
</g>
</g>
<!-- Node1&#45;&gt;Node4 -->
<g id="edge3" class="edge">
<title>Node1&#45;&gt;Node4</title>
<path fill="none" stroke="midnightblue" d="M38.15,-64.5C46.1,-64.5 56.02,-64.5 66.56,-64.5"/>
<polygon fill="midnightblue" stroke="midnightblue" points="66.81,-68 76.81,-64.5 66.81,-61 66.81,-68"/>
</g>
<!-- Node5 -->
<g id="node5" class="node">
<title>Node5</title>
<g id="a_node5"><a xlink:href="../../de/d44/classdata__structures_1_1linked__list_1_1_queue___array.html#a5d8be5af419c632ad462f3fda997a250" target="_top" xlink:title=" ">
<polygon fill="white" stroke="black" points="74,-0.5 74,-30.5 214,-30.5 214,-0.5 74,-0.5"/>
<text text-anchor="start" x="82" y="-18.5" font-family="Helvetica,sans-Serif" font-size="10.00">data_structures::linked</text>
<text text-anchor="middle" x="144" y="-7.5" font-family="Helvetica,sans-Serif" font-size="10.00">_list::Queue_Array::enqueue</text>
</a>
</g>
</g>
<!-- Node1&#45;&gt;Node5 -->
<g id="edge5" class="edge">
<title>Node1&#45;&gt;Node5</title>
<path fill="none" stroke="midnightblue" d="M38.36,-55.96C48.74,-51.22 62.01,-45.33 74,-40.5 79.38,-38.33 85.02,-36.15 90.67,-34.02"/>
<polygon fill="midnightblue" stroke="midnightblue" points="91.97,-37.27 100.12,-30.5 89.53,-30.71 91.97,-37.27"/>
</g>
<!-- Node3 -->
<g id="node3" class="node">
<title>Node3</title>
<g id="a_node3"><a target="_blank" xlink:href="http://en.cppreference.com/w/cpp/container/vector/at.html#" target="_top" xlink:title=" ">
<polygon fill="white" stroke="black" points="255,-55 255,-74 332,-74 332,-55 255,-55"/>
<text text-anchor="middle" x="293.5" y="-62" font-family="Helvetica,sans-Serif" font-size="10.00">std::vector::at</text>
</a>
</g>
</g>
<!-- Node2&#45;&gt;Node3 -->
<g id="edge2" class="edge">
<title>Node2&#45;&gt;Node3</title>
<path fill="none" stroke="midnightblue" d="M190.46,-98.4C210.79,-91.65 234.49,-83.77 253.94,-77.31"/>
<polygon fill="midnightblue" stroke="midnightblue" points="255.29,-80.55 263.68,-74.08 253.08,-73.91 255.29,-80.55"/>
</g>
<!-- Node4&#45;&gt;Node3 -->
<g id="edge4" class="edge">
<title>Node4&#45;&gt;Node3</title>
<path fill="none" stroke="midnightblue" d="M211.41,-64.5C222.54,-64.5 233.89,-64.5 244.44,-64.5"/>
<polygon fill="midnightblue" stroke="midnightblue" points="244.68,-68 254.68,-64.5 244.68,-61 244.68,-68"/>
</g>
<!-- Node5&#45;&gt;Node3 -->
<g id="edge6" class="edge">
<title>Node5&#45;&gt;Node3</title>
<path fill="none" stroke="midnightblue" d="M190.46,-30.6C210.79,-37.35 234.49,-45.23 253.94,-51.69"/>
<polygon fill="midnightblue" stroke="midnightblue" points="253.08,-55.09 263.68,-54.92 255.29,-48.45 253.08,-55.09"/>
</g>
<!-- Node6 -->
<g id="node6" class="node">
<title>Node6</title>
<g id="a_node6"><a target="_blank" xlink:href="http://en.cppreference.com/w/cpp/container/vector/size.html#" target="_top" xlink:title=" ">
<polygon fill="white" stroke="black" points="250,-6 250,-25 337,-25 337,-6 250,-6"/>
<text text-anchor="middle" x="293.5" y="-13" font-family="Helvetica,sans-Serif" font-size="10.00">std::vector::size</text>
</a>
</g>
</g>
<!-- Node5&#45;&gt;Node6 -->
<g id="edge7" class="edge">
<title>Node5&#45;&gt;Node6</title>
<path fill="none" stroke="midnightblue" d="M214.43,-15.5C222.94,-15.5 231.53,-15.5 239.74,-15.5"/>
<polygon fill="midnightblue" stroke="midnightblue" points="239.9,-19 249.9,-15.5 239.9,-12 239.9,-19"/>
</g>
</g>
</svg>
